<svg xmlns="http://www.w3.org/2000/svg" width="250" height="250" viewBox="0 0 250 250">
<!-- SVG created with Arrow, by QuiverAI (https://quiver.ai) -->
  <path d="m228.6 73.71c0-29.15-23.81-55.71-54.43-55.71h-2.14c-6.45 0-11.9 1.3-16.54 2.91v73.28h-60.17v-73.45c-4.96-1.8-10.41-2.74-16.42-2.74h-2.14c-29.2 0-55.04 25.34-55.04 55.44 0 15.64 6.44 28.76 16.88 38.95l37.32 37.03 0.01-0.01 0.04 0.05 0.07-0.07v-12.57l-29.93-30.11c-8.99-8.74-14.54-19.5-14.54-33.01 0-24.61 20.28-45.96 45.52-45.96h1.82c2.41 0 4.73 0.23 7.14 0.66v131.4l39.37 38.95 86.3-86.32c10.44-10.54 16.88-23.31 16.88-38.68zm-22.07 32-81.31 80.27-29.9-30.66v-51.61h60.17v38.36l9.56-9.77v-103.6c2.41-0.57 4.95-0.94 7.59-0.94h1.81c24.68 0 44.5 21.17 44.5 45.78 0 12.67-5.45 24.31-12.42 32.19z" fill="#000"/>
  <path d="m20.37 226.9c3.95 0 5.74-2.74 6.14-4.73l-1.67-0.37c-0.45 1.95-1.92 3.55-4.46 3.55-3.12 0-4.85-2.42-4.85-5.19 0-3.07 1.97-5.03 4.75-5.03 2.48 0 3.87 1.46 4.35 3.34l1.69-0.37c-0.64-2.49-2.63-5.08-6.07-5.08-3.83 0-6.44 2.88-6.44 6.99 0 3.69 2.37 6.89 6.56 6.89z" fill="#000"/>
  <path d="m28.28 226.6h1.64v-13.53h-1.64v13.53z" fill="#000"/>
  <path d="m37.77 226.8c2.67 0 4.19-1.33 5.02-3.31l-1.43-0.58c-0.91 1.81-1.98 2.41-3.52 2.41-2.18 0-3.42-1.49-3.53-3.51h8.53v-0.57c0-3.31-2.13-5.31-5.06-5.31-3.07 0-5.07 2.21-5.07 5.28 0 3.26 2.13 5.59 5.06 5.59zm-3.39-6.35c0.4-1.66 1.57-3 3.43-3 1.9 0 3.05 1.13 3.4 3h-6.83z" fill="#000"/>
  <path d="m50.13 226.8c1.98 0 3.41-0.98 4.15-2.48v2.28h1.53v-10.43h-1.53v2.1c-0.79-1.47-2.1-2.34-3.91-2.34-3 0-4.65 2.34-4.65 5.26 0 3.18 1.9 5.61 4.41 5.61zm0.5-1.5c-2.26 0-3.29-1.78-3.29-3.96 0-2.29 1.28-3.91 3.41-3.91 2.16 0 3.6 1.66 3.6 4.04 0 2.27-1.44 3.83-3.72 3.83z" fill="#000"/>
  <path d="m58.86 226.6h1.64v-4.91c0-2.69 1.24-4.19 3.32-4.19 2.09 0 2.67 1.54 2.67 3.35v5.75h1.64v-6.33c0-2.53-1.4-4.3-3.91-4.3-1.64 0-2.96 0.72-3.75 2.06v-1.86h-1.61v10.43z" fill="#000"/>
  <path d="m74.98 226.6h1.69v-5.93h6.66v5.93h1.69v-13.43h-1.69v5.95h-6.66v-5.95h-1.69v13.43z" fill="#000"/>
  <path d="m92.31 226.8c2.67 0 4.19-1.33 5.02-3.31l-1.43-0.58c-0.91 1.81-1.98 2.41-3.52 2.41-2.18 0-3.42-1.49-3.53-3.51h8.53v-0.57c0-3.31-2.13-5.31-5.06-5.31-3.07 0-5.07 2.21-5.07 5.28 0 3.26 2.13 5.59 5.06 5.59zm-3.39-6.35c0.4-1.66 1.57-3 3.43-3 1.9 0 3.05 1.13 3.4 3h-6.83z" fill="#000"/>
  <path d="m100.1 226.6h1.64v-4.38c0-3.18 1.33-4.6 2.97-4.6 0.55 0 1.05 0.15 1.45 0.41l0.66-1.43c-0.48-0.36-1.14-0.63-1.97-0.63-1.48 0-2.58 0.83-3.18 2.41v-2.21h-1.57v10.43z" fill="#000"/>
  <path d="m111 226.8c0.66 0 1.25-0.17 1.63-0.36l-0.33-1.47c-0.3 0.14-0.68 0.26-1.13 0.26-0.88 0-1.27-0.48-1.27-1.81v-5.77h2.63v-1.4h-2.63v-2.75l-1.55 0.76v1.99h-1.5v1.4h1.44v5.65c0 2.35 1 3.5 2.71 3.5z" fill="#000"/>
  <path d="m117.8 226.8c2.55 0 3.82-1.23 3.82-3.06 0-1.92-1.71-2.47-3.59-2.92-1.88-0.5-2.83-0.72-2.83-1.77 0-0.88 0.67-1.53 2.28-1.53 1.29 0 2.17 0.53 2.73 1.48l1.31-0.9c-0.8-1.23-2.12-2.03-4.05-2.03-2.39 0-3.8 1.28-3.8 3 0 1.9 1.78 2.52 3.6 3 1.64 0.45 2.71 0.65 2.71 1.67 0 0.98-0.88 1.56-2.38 1.56-1.55 0-2.6-0.8-3.12-2.03l-1.43 0.75c0.8 1.7 2.4 2.78 4.75 2.78z" fill="#000"/>
  <path d="m133.7 226.9c3.95 0 5.73-2.74 6.13-4.73l-1.66-0.37c-0.45 1.95-1.92 3.55-4.46 3.55-3.12 0-4.85-2.42-4.85-5.19 0-3.07 1.97-5.03 4.75-5.03 2.47 0 3.87 1.46 4.35 3.34l1.69-0.37c-0.64-2.49-2.63-5.08-6.07-5.08-3.83 0-6.44 2.88-6.44 6.99 0 3.69 2.37 6.89 6.56 6.89z" fill="#000"/>
  <path d="m147 226.8c3.26 0 5.44-2.23 5.44-5.43 0-3.3-2.18-5.44-5.44-5.44-3.12 0-5.36 2.14-5.36 5.39s2.13 5.48 5.36 5.48zm0.02-1.5c-2.39 0-3.74-1.68-3.74-4.01 0-2.27 1.5-3.86 3.74-3.86 2.35 0 3.78 1.62 3.78 3.94 0 2.35-1.5 3.93-3.78 3.93z" fill="#000"/>
  <path d="m154.9 226.6h1.64v-5.11c0-2.42 1.07-3.99 2.86-3.99 1.57 0 2.2 1.27 2.2 2.95v6.15h1.64v-5.11c0-2.42 1.12-3.99 2.88-3.99 1.57 0 2.2 1.27 2.2 2.95v6.15h1.64v-6.48c0-2.42-1.31-4.15-3.59-4.15-1.67 0-2.89 0.95-3.53 2.4-0.6-1.55-1.72-2.4-3.43-2.4-1.5 0-2.58 0.8-3.22 2.08v-1.88h-1.29v10.43z" fill="#000"/>
  <path d="m173.3 226.6h1.64v-5.11c0-2.42 1.07-3.99 2.86-3.99 1.57 0 2.2 1.27 2.2 2.95v6.15h1.64v-5.11c0-2.42 1.12-3.99 2.88-3.99 1.57 0 2.2 1.27 2.2 2.95v6.15h1.64v-6.48c0-2.42-1.31-4.15-3.59-4.15-1.67 0-2.89 0.95-3.53 2.4-0.6-1.55-1.72-2.4-3.43-2.4-1.5 0-2.58 0.8-3.22 2.08v-1.88h-1.29v10.43z" fill="#000"/>
  <path d="m195.5 226.8c1.6 0 2.87-0.8 3.61-2.15v1.98h1.53v-10.43h-1.64v5.42c0 2.33-1.24 3.73-3.15 3.73-1.97 0-2.72-1.27-2.72-3.35v-5.8h-1.64v6.25c0 2.73 1.39 4.35 4.01 4.35z" fill="#000"/>
  <path d="m203.7 226.6h1.64v-4.91c0-2.69 1.24-4.19 3.32-4.19 2.09 0 2.67 1.54 2.67 3.35v5.75h1.64v-6.33c0-2.53-1.4-4.3-3.91-4.3-1.64 0-2.95 0.72-3.75 2.06v-1.86h-1.61v10.43z" fill="#000"/>
  <path d="m215.9 214.6h1.85v-2.17h-1.85v2.17zm0.1 12.03h1.64v-10.43h-1.64v10.43z" fill="#000"/>
  <path d="m224.3 226.8c0.65 0 1.25-0.17 1.63-0.36l-0.33-1.47c-0.3 0.14-0.68 0.26-1.13 0.26-0.88 0-1.27-0.48-1.27-1.81v-5.77h2.63v-1.4h-2.63v-2.75l-1.55 0.76v1.99h-1.5v1.4h1.44v5.65c0 2.35 1 3.5 2.71 3.5z" fill="#000"/>
  <path d="m229.5 229.7h1.79l4.89-13.48h-1.76l-3.07 8.6-3.2-8.6h-1.85l4.18 10.48-0.98 3z" fill="#000"/>
</svg>