<?xml version="1.0" encoding="UTF-8" standalone="no"?>
<!DOCTYPE svg PUBLIC "-//W3C//DTD SVG 1.1//EN" "http://www.w3.org/Graphics/SVG/1.1/DTD/svg11.dtd">
<svg width="100%" height="100%" viewBox="0 0 446 240" version="1.1" xmlns="http://www.w3.org/2000/svg" xmlns:xlink="http://www.w3.org/1999/xlink" xml:space="preserve" xmlns:serif="http://www.serif.com/" style="fill-rule:evenodd;clip-rule:evenodd;stroke-linejoin:round;stroke-miterlimit:2;">
    <path d="M95.74,71.77L91,76.52L91,132.27L95.74,137.02L170.01,137.02L170.01,119.14L109.61,119.14L109.61,112.61L170.01,112.61L170.01,95.37L109.73,95.37L109.73,88.84L170.01,88.84L170.01,71L95.74,71L95.74,71.77Z" style="fill:white;fill-rule:nonzero;"/>
    <path d="M190.6,71.77L186.21,76.16L186.21,131.91L190.6,136.3L259.68,136.3L264.42,132.27L264.42,101.78L259.68,95.5L214.23,95.5L214.23,112.99L245.93,112.99L245.93,119.14L205.27,119.14L205.27,88.46L264.42,88.46L264.42,71L190.6,71L190.6,71.77Z" style="fill:white;fill-rule:nonzero;"/>
    <path d="M285.8,71.77L280.67,76.16L280.67,136.68L299.88,136.68L299.88,121.01L340.57,121.01L340.57,136.68L359.05,136.68L359.05,76.52L354.31,71L285.8,71L285.8,71.77ZM340.19,103.91L299.74,103.91L299.74,88.34L340.19,88.34L340.19,103.91Z" style="fill:white;fill-rule:nonzero;"/>
    <path d="M179.8,148.7L179.8,152.58L183.58,152.58L183.58,172.19L187.73,172.19L187.73,152.58L190.86,152.58L190.86,148.7L179.8,148.7Z" style="fill:white;fill-rule:nonzero;"/>
    <path d="M207,148.7L207,172.19L217.53,172.19L217.53,168.68L211.32,168.68L211.32,162.06L216.04,162.06L216.04,158.55L211.32,158.55L211.32,152.58L216.81,152.58L216.81,148.7L207,148.7Z" style="fill:white;fill-rule:nonzero;"/>
    <path d="M244,164.6L244,167.06C244,170.19 242.06,172.65 238.18,172.65C234.3,172.65 232.35,170.19 232.35,166.69L232.35,154.51C232.35,151.01 234.3,148.55 238.18,148.55C242.06,148.55 244,151.01 244,154.51L244,156.58L240.27,156.58L240.27,154.25C240.27,152.61 239.49,151.84 238.37,151.84C237.25,151.84 236.48,152.61 236.48,154.25L236.48,166.93C236.48,168.58 237.25,169.22 238.37,169.22C239.49,169.22 240.27,168.58 240.27,166.93L240.27,164.6L244,164.6Z" style="fill:white;fill-rule:nonzero;"/>
    <path d="M267.3,148.7L267.3,158.42L263.93,158.42L263.93,148.7L259.6,148.7L259.6,172.19L263.93,172.19L263.93,162.06L267.3,162.06L267.3,172.19L270.89,172.19L270.89,148.7L267.3,148.7Z" style="fill:white;fill-rule:nonzero;"/>
</svg>
