<?xml version="1.0" encoding="UTF-8" standalone="no"?>
<!DOCTYPE svg PUBLIC "-//W3C//DTD SVG 1.1//EN" "http://www.w3.org/Graphics/SVG/1.1/DTD/svg11.dtd">
<svg width="100%" height="100%" viewBox="0 0 250 78" version="1.1" xmlns="http://www.w3.org/2000/svg" xmlns:xlink="http://www.w3.org/1999/xlink" xml:space="preserve" xmlns:serif="http://www.serif.com/" style="fill-rule:evenodd;clip-rule:evenodd;stroke-linejoin:round;stroke-miterlimit:2;">
    <path d="M5.6,7.6L5.71,6.25C5.84,4.48 6.64,4.64 7.71,4.33C10.29,3.54 10.77,5.24 10.77,8.16L10.73,12.38L10.46,22.9L10.49,29.24L10.38,32.71L10.49,36.93L10.38,42.08L10.38,47.06L10.49,49.29L10.49,52.87C10.49,56.07 7.95,56.03 7.15,55.93C5.19,55.66 4.81,53.23 4.78,51.85L5.05,47.06L5.05,32.03L4.78,27.24L5.05,20.56L5.16,15.23L5.26,12.38L5.22,10.15L5.33,7.6L5.6,7.6Z" style="fill:rgb(255,212,78);fill-rule:nonzero;"/>
    <path d="M29.26,8.97L29.19,7.24C29.12,5.26 30.06,4.84 31.23,4.69C32.32,4.55 33.98,4.4 34.67,5.92C35.12,6.95 35.32,7.92 35.49,9.81L35.36,12.28L35.29,16.12L35.22,23.96C35.18,25.71 33.73,26.12 32.32,26.02C30.02,25.85 29.32,24.26 29.43,22.24L29.53,20.22L29.29,17.02L29.43,13.9L29.26,11.21L29.26,8.97Z" style="fill:rgb(255,212,78);fill-rule:nonzero;"/>
    <path d="M13.21,28.43C14.81,27.7 16.01,27.71 18.19,27.96L21.25,27.92L24.81,27.75L30.49,27.68C34.77,27.53 35.74,30.73 35.74,32.27L35.46,38.21L35.61,39.82L35.36,43.94L35.46,46.03L35.36,49.71L35.43,52.19C35.46,54.84 33.91,55.88 32.11,55.79C30.31,55.71 29.71,54.74 29.78,52.29L29.92,49.09L29.71,47.3L29.85,44.21L29.71,42.11L30.03,38.28L30.17,33.96L25.72,33.72L22.44,33.89L19.25,33.72L16.71,33.79C14.41,33.72 12.01,33.45 12.12,30.73C12.15,29.62 12.48,28.85 13.21,28.43Z" style="fill:rgb(255,212,78);fill-rule:nonzero;"/>
    <path d="M50.45,26.9C47.12,26.83 46.65,29.05 46.61,30.32C46.51,32.34 47.85,34.17 50.35,34.23C53.48,34.31 53.92,32.11 53.89,30.08C53.86,28.06 52.41,26.96 50.45,26.9Z" style="fill:rgb(255,212,78);fill-rule:nonzero;"/>
    <path d="M93.28,4.61L89.08,4.74L83.74,5.34C74.99,7.71 67.07,15.88 65.47,26.6L65.06,30.76L65.62,34.91L67.21,40.23C69.75,47.08 76.69,53.52 84.16,55.54C86.12,56.09 87.64,55.08 87.64,53.21C87.64,51.19 86.09,50.45 83.71,49.48C76.42,46.42 72.11,39.82 70.8,30.15C70.73,25.86 73.92,18.01 80.27,12.96L85.71,10.77C88.63,9.63 91.82,9.72 94.23,10.43C101.66,12.89 105.61,18.91 108.36,27.92C109.23,30.71 107.03,38.86 102.72,44.59C99.97,48.34 94.29,49.91 93.21,50.08C91.25,50.43 90.74,51.02 90.81,52.91C90.88,55.07 92.29,55.59 94.53,55.42C98.31,55.15 104.34,51.64 107.19,47.86C111.01,42.85 113.86,37.97 113.86,30.29C113.86,18.44 104.91,6.35 93.28,4.61Z" style="fill:rgb(255,212,78);fill-rule:nonzero;"/>
    <path d="M129,26.71C126.35,26.4 124.8,27.75 124.73,29.98C124.63,32.63 125.77,34.27 128.41,34.24C131.2,34.21 132.24,32.73 132.3,30.12C132.37,28.09 130.82,26.91 129,26.71Z" style="fill:rgb(255,212,78);fill-rule:nonzero;"/>
    <path d="M143.5,7.71L143.46,7.74C143.46,5.38 144.23,4.61 146.09,4.61C147.64,4.61 148.61,5.14 148.68,7.03L148.93,11.94L148.78,17.6L148.93,20.22L148.71,26.9L148.89,29.62L148.68,33.96L148.85,36.95L148.51,39.68L148.75,43.19L148.51,47.31L148.54,49.3L148.4,52.6C148.3,54.59 147.16,55.21 145.85,55.11C144.37,54.97 143.64,55.01 143.43,52.43L142.94,47.31L143.08,39.68L143.25,37.03L143.15,32.01L143.39,27.1L143.18,23.32L143.36,14.96L143.32,11.31L143.5,7.71Z" style="fill:rgb(255,212,78);fill-rule:nonzero;"/>
    <path d="M150.4,15.2C149.99,13.06 150.89,12.18 152.17,12.21C153.58,12.25 155.06,12.72 156.2,14.82L165.69,31.66L174.97,15.13C176.25,12.62 177.15,12.62 178.49,12.65C180.09,12.72 181.36,14.38 180.6,16.92L176.15,25.06L172.86,30.82L170.11,36.14C168.74,38.52 167.63,39.06 166.04,39.06C164.31,39.06 163.04,38.25 161.41,34.91L151.96,18.27C151.3,17.33 150.64,16.49 150.4,15.2Z" style="fill:rgb(255,212,78);fill-rule:nonzero;"/>
    <path d="M183.4,7.71C183.43,5.24 184.3,4.71 186.2,4.71C187.82,4.71 188.48,5.41 188.58,7.71L188.68,10.43L188.68,14.65L188.41,20.73L188.41,26.19L188.27,29.8L188.37,32.86L188.1,36.02L188.2,39.7L188.03,42.69L188.17,46.13L188,49.09L188.27,51.11C187.93,54.41 187.3,55.31 185.58,55.28C183.95,55.25 183.29,54.8 183.22,52.01L183.15,49.36L183.15,36.02L183.22,30.9L183.05,27.71L183.32,23.93L183.18,19.88L183.4,14.55L183.4,7.71Z" style="fill:rgb(255,212,78);fill-rule:nonzero;"/>
    <path d="M202.8,26.7C200.09,27.04 198.91,28.39 199.12,30.22C199.5,33.17 200.74,34.14 202.37,34.06C205.32,33.93 206.46,32.42 206.46,29.63C206.46,27.81 204.77,26.46 202.8,26.7Z" style="fill:rgb(255,212,78);fill-rule:nonzero;"/>
    <path d="M218.1,8.36L218.48,6.13C219.04,4.86 221.28,4.31 223.72,4.24L228.03,4.41L232.06,4.51L236.19,4.34L242.07,4.27C244.72,4.34 244.68,5.72 244.75,7.1C244.82,8.76 244.16,9.61 241.1,9.78L237.08,10.05L232.98,9.78L226.46,9.78L223.96,10.12L223.79,12.28L223.82,17.23L223.65,21.04C223.41,23.99 222.03,24.44 220.62,24.34C219.1,24.23 218.06,23.49 218.13,20.6L218.27,16.82L218.34,13.48L218.1,10.43L218.1,8.36Z" style="fill:rgb(255,212,78);fill-rule:nonzero;"/>
    <path d="M218.2,32.45L218.65,29.73C219.1,28.52 220.41,27.24 223.7,27.07L228.76,27.24L233.71,27.41L238.09,27.24L242.33,27.31C244.9,27.41 245.18,28.92 245.15,29.77C245.01,31.79 244.63,32.76 242.87,32.83L237.95,33.07L232.99,32.9L228.17,33.21L224.21,32.97L224.01,36.16L224.07,39.08L224.01,41.84L224.11,45.55L223.97,49.5L226.86,49.71L233.3,49.54L236.29,49.67L239.21,49.54L242.96,49.81C244.75,50.01 245.1,51.19 245.07,52.5C245.03,54.22 244.23,55.66 241.96,55.76L236.15,55.83L233.26,55.62L229.67,55.86L226.92,55.59L223.97,55.83C221.05,55.76 218.51,54.86 218.44,51.66L218.65,46.2L218.55,42.65L218.65,38.11L218.44,35.22L218.2,32.45Z" style="fill:rgb(255,212,78);fill-rule:nonzero;"/>
    <path d="M10.01,72.73L10.01,70.21L6.99,70.21L6.99,72.73L5.63,72.73L5.63,66.19L6.99,66.19L6.99,69.03L10.01,69.03L10.01,66.19L11.37,66.19L11.37,72.73L10.01,72.73Z" style="fill:rgb(244,146,106);fill-rule:nonzero;"/>
    <path d="M17.41,72.82C14.94,72.82 13.79,70.91 13.79,69.29C13.79,67.56 14.98,66.06 17.07,66.06C19.34,66.06 20.62,67.68 20.62,69.41C20.62,71.21 19.41,72.82 17.41,72.82ZM17.34,67.27C15.97,67.27 15.21,68.31 15.21,69.52C15.21,70.73 16.01,71.63 17.28,71.63C18.69,71.63 19.38,70.46 19.38,69.36C19.38,68.28 18.62,67.27 17.34,67.27Z" style="fill:rgb(244,146,106);fill-rule:nonzero;"/>
    <path d="M26.95,72.82C24.92,72.82 23.99,71.51 23.99,69.31L23.99,66.19L25.29,66.19L25.29,69.18C25.29,70.66 25.71,71.63 26.92,71.63C27.99,71.63 28.48,70.73 28.48,69.22L28.48,66.19L29.78,66.19L29.78,69.25C29.78,71.44 28.78,72.82 26.95,72.82Z" style="fill:rgb(244,146,106);fill-rule:nonzero;"/>
    <path d="M35.92,72.82C35.23,72.82 34.43,72.51 33.8,72.13L34.29,70.97C34.85,71.35 35.5,71.63 36.06,71.63C36.69,71.63 37.01,71.28 37.01,70.87C37.01,70.52 36.79,70.25 35.68,69.73C34.54,69.17 34.12,68.59 34.12,67.83C34.12,66.89 34.92,66.06 36.27,66.06C36.93,66.06 37.56,66.3 37.98,66.58L37.52,67.71C37.14,67.47 36.58,67.2 36.17,67.2C35.58,67.2 35.3,67.55 35.3,67.89C35.3,68.24 35.61,68.48 36.44,68.93C37.74,69.63 38.16,70.11 38.16,70.94C38.16,71.98 37.35,72.82 35.92,72.82Z" style="fill:rgb(244,146,106);fill-rule:nonzero;"/>
    <path d="M42.35,72.74L42.35,66.19L46.69,66.19L46.69,67.38L43.65,67.38L43.65,68.98L46.38,68.98L46.38,70.11L43.65,70.11L43.65,71.56L46.69,71.56L46.69,72.74L42.35,72.74Z" style="fill:rgb(244,146,106);fill-rule:nonzero;"/>
    <path d="M59.07,72.82C56.98,72.82 55.73,71.28 55.73,69.49C55.73,67.63 57.04,66.06 59.12,66.06C61.27,66.06 62.51,67.59 62.51,69.36C62.51,71.16 61.26,72.82 59.07,72.82ZM59.07,67.27C57.73,67.27 56.97,68.41 56.97,69.56C56.97,70.7 57.7,71.7 59.01,71.7C60.42,71.7 61.21,70.56 61.21,69.42C61.21,68.28 60.38,67.27 59.07,67.27Z" style="fill:rgb(244,146,106);fill-rule:nonzero;"/>
    <path d="M66.92,67.37L66.92,69.25L69.51,69.25L69.51,70.39L66.92,70.39L66.92,72.73L65.69,72.73L65.69,66.19L69.76,66.19L69.76,67.37L66.92,67.37Z" style="fill:rgb(244,146,106);fill-rule:nonzero;"/>
    <path d="M84.89,72.73L84.79,68.98L82.83,72.11L82.66,72.11L80.67,68.97L80.6,72.73L79.37,72.73L79.68,66.15L79.92,66.12L82.79,70.7L85.56,66.12L85.81,66.15L86.12,72.73L84.89,72.73Z" style="fill:rgb(244,146,106);fill-rule:nonzero;"/>
    <path d="M92.67,72.82C90.87,72.82 89.87,71.68 89.87,69.69L89.87,66.19L91.11,66.19L91.11,69.56C91.11,70.87 91.73,71.63 92.74,71.63C93.75,71.63 94.38,70.83 94.38,69.52L94.38,66.19L95.61,66.19L95.61,69.56C95.61,71.52 94.51,72.82 92.67,72.82Z" style="fill:rgb(244,146,106);fill-rule:nonzero;"/>
    <path d="M101.1,72.82C100.3,72.82 99.43,72.47 98.8,72.06L99.22,70.9C99.81,71.31 100.54,71.6 101.13,71.6C101.83,71.6 102.15,71.21 102.15,70.8C102.15,70.45 101.94,70.15 100.76,69.66C99.55,69.14 99.12,68.52 99.12,67.76C99.12,66.89 99.88,66.06 101.31,66.06C102.04,66.06 102.74,66.34 103.19,66.61L102.77,67.74C102.36,67.47 101.76,67.2 101.28,67.2C100.62,67.2 100.34,67.58 100.34,67.89C100.34,68.28 100.69,68.52 101.59,68.93C102.96,69.59 103.41,70.14 103.41,70.97C103.41,71.92 102.64,72.82 101.1,72.82Z" style="fill:rgb(244,146,106);fill-rule:nonzero;"/>
    <rect x="107.1" y="66.19" width="1.23" height="6.54" style="fill:rgb(244,146,106);fill-rule:nonzero;"/>
    <path d="M115.6,72.82C113.41,72.82 112,71.35 112,69.49C112,67.58 113.44,66.06 115.57,66.06C116.33,66.06 117.16,66.33 117.76,66.75L117.31,67.79C116.78,67.48 116.12,67.23 115.53,67.23C114.05,67.23 113.25,68.21 113.25,69.45C113.25,70.66 114.11,71.63 115.55,71.63C116.21,71.63 116.87,71.35 117.44,71L117.82,72.04C117.23,72.49 116.4,72.82 115.6,72.82Z" style="fill:rgb(244,146,106);fill-rule:nonzero;"/>
    <path d="M128.2,69.61C128.48,70.21 128.68,70.84 128.86,71.42L129.1,72.73L127.76,72.73L127.45,71.46C126.79,72.26 126.06,72.78 125.08,72.78C123.71,72.78 122.91,72.02 122.91,70.88C122.91,69.91 123.61,69.22 124.37,68.63C123.92,68.14 123.64,67.69 123.64,67.17C123.64,66.44 124.27,65.71 125.44,65.71C126.41,65.71 127.07,66.37 127.07,67.24C127.07,67.86 126.62,68.42 125.96,68.97L127.31,70.68C127.52,70.3 127.69,69.88 127.86,69.46L128.2,69.61ZM126.83,70.73L125.28,68.69C124.62,69.25 124.2,69.81 124.2,70.4C124.2,70.99 124.59,71.45 125.32,71.45C125.88,71.45 126.37,71.11 126.83,70.73ZM125.4,66.72C124.94,66.72 124.66,67.03 124.66,67.41C124.66,67.76 124.87,68.11 125.22,68.56C125.81,68.07 126.06,67.72 126.06,67.34C126.06,67 125.81,66.72 125.4,66.72Z" style="fill:rgb(244,146,106);fill-rule:nonzero;"/>
    <path d="M134.7,72.74L134.7,66.19L139.43,66.19L139.43,67.38L135.93,67.38L135.93,68.98L139.06,68.98L139.06,70.11L135.93,70.11L135.93,71.56L139.43,71.56L139.43,72.74L134.7,72.74Z" style="fill:rgb(244,146,106);fill-rule:nonzero;"/>
    <path d="M148.6,72.86L148.53,72.88L144.43,68.76L144.43,72.73L143.13,72.73L143.13,66.08L143.3,66.05L147.33,70.11L147.33,66.19L148.6,66.19L148.6,72.86Z" style="fill:rgb(244,146,106);fill-rule:nonzero;"/>
    <path d="M155.8,67.37L155.8,72.73L154.5,72.73L154.5,67.37L152.47,67.37L152.47,66.19L157.8,66.19L157.8,67.37L155.8,67.37Z" style="fill:rgb(244,146,106);fill-rule:nonzero;"/>
    <path d="M161.1,72.74L161.1,66.19L165.76,66.19L165.76,67.38L162.4,67.38L162.4,68.98L165.46,68.98L165.46,70.11L162.4,70.11L162.4,71.56L165.76,71.56L165.76,72.74L161.1,72.74Z" style="fill:rgb(244,146,106);fill-rule:nonzero;"/>
    <path d="M173.6,72.73L172.26,70.46C172.16,70.47 172.06,70.47 171.95,70.47C171.67,70.47 171.5,70.46 171.22,70.45L171.22,72.73L169.92,72.73L169.92,66.26C170.52,66.19 171.15,66.13 171.91,66.13C173.88,66.13 174.71,67.14 174.71,68.24C174.71,69.11 174.26,69.81 173.43,70.22L175.09,72.74L173.6,72.74L173.6,72.73ZM172.09,67.31C171.81,67.31 171.53,67.31 171.22,67.38L171.22,69.43C171.47,69.46 171.67,69.46 171.88,69.46C172.85,69.46 173.37,68.98 173.37,68.31C173.37,67.72 172.89,67.31 172.09,67.31Z" style="fill:rgb(244,146,106);fill-rule:nonzero;"/>
    <path d="M181.2,67.37L181.2,72.73L179.9,72.73L179.9,67.37L177.87,67.37L177.87,66.19L183.2,66.19L183.2,67.37L181.2,67.37Z" style="fill:rgb(244,146,106);fill-rule:nonzero;"/>
    <path d="M190.4,72.73L189.77,71.18L187.3,71.18L186.67,72.73L185.37,72.73L188.46,66.09L188.67,66.09L191.76,72.73L190.4,72.73ZM188.53,68.42L187.63,70.21L189.39,70.21L188.53,68.42Z" style="fill:rgb(244,146,106);fill-rule:nonzero;"/>
    <rect x="195.2" y="66.19" width="1.16" height="6.54" style="fill:rgb(244,146,106);fill-rule:nonzero;"/>
    <path d="M206,72.86L205.93,72.88L202.17,68.76L202.17,72.73L201.01,72.73L201.01,66.08L201.15,66.05L204.84,70.11L204.84,66.19L206,66.19L206,72.86Z" style="fill:rgb(244,146,106);fill-rule:nonzero;"/>
    <path d="M215.7,72.73L215.6,69.14L213.71,72.12L213.57,72.12L211.65,69.11L211.58,72.73L210.42,72.73L210.7,66.12L210.87,66.09L213.67,70.53L216.38,66.09L216.55,66.12L216.83,72.73L215.7,72.73Z" style="fill:rgb(244,146,106);fill-rule:nonzero;"/>
    <path d="M221.7,72.74L221.7,66.19L226.22,66.19L226.22,67.38L222.94,67.38L222.94,68.98L225.91,68.98L225.91,70.11L222.94,70.11L222.94,71.56L226.22,71.56L226.22,72.74L221.7,72.74Z" style="fill:rgb(244,146,106);fill-rule:nonzero;"/>
    <path d="M236.3,72.86L236.23,72.88L232.4,68.76L232.4,72.73L231.16,72.73L231.16,66.08L231.3,66.05L235.06,70.11L235.06,66.19L236.3,66.19L236.3,72.86Z" style="fill:rgb(244,146,106);fill-rule:nonzero;"/>
    <path d="M242.9,67.37L242.9,72.73L241.6,72.73L241.6,67.37L239.57,67.37L239.57,66.19L244.9,66.19L244.9,67.37L242.9,67.37Z" style="fill:rgb(244,146,106);fill-rule:nonzero;"/>
</svg>
