<?xml version="1.0" encoding="UTF-8" standalone="no"?>
<!DOCTYPE svg PUBLIC "-//W3C//DTD SVG 1.1//EN" "http://www.w3.org/Graphics/SVG/1.1/DTD/svg11.dtd">
<svg width="100%" height="100%" viewBox="0 0 250 81" version="1.1" xmlns="http://www.w3.org/2000/svg" xmlns:xlink="http://www.w3.org/1999/xlink" xml:space="preserve" xmlns:serif="http://www.serif.com/" style="fill-rule:evenodd;clip-rule:evenodd;stroke-linejoin:round;stroke-miterlimit:2;">
    <path d="M93.71,31.19L84.72,31.19L84.72,14.18C84.72,12.56 83.88,12.02 82.41,12.02C80.72,12.02 80.01,12.73 80.01,14.18L80.01,33.32C80.01,35.01 80.82,35.72 82.17,35.72L93.61,35.72C95.27,35.72 95.81,35.01 95.81,33.6C95.81,32.16 95.1,31.19 93.71,31.19Z" style="fill:rgb(53,0,35);fill-rule:nonzero;"/>
    <path d="M110.2,11.41C102.78,11.41 98.94,17.71 98.94,23.91C98.94,30.11 102.64,35.72 109.82,35.72C117.21,35.72 121.19,29.41 121.19,23.7C121.19,17.71 117.32,11.41 110.2,11.41ZM110.34,30.88C105.73,30.88 104.72,27.92 104.72,23.49C104.72,19.03 105.93,15.46 110.13,15.46C114.74,15.46 116.06,18.55 116.06,23.11C116.06,27.58 114.67,30.88 110.34,30.88Z" style="fill:rgb(53,0,35);fill-rule:nonzero;"/>
    <path d="M144.5,11.78C143.28,11.78 142.54,12.39 142.13,13.73L135.52,28.89L128.8,13.32C128.27,12.15 127.66,11.78 126.44,11.78C125.05,11.78 124,12.53 124,13.7C124,14.11 124.1,14.52 124.34,15.06L132.64,34.31C133.14,35.48 133.78,35.85 135.21,35.85C136.63,35.85 137.34,35.31 137.88,33.87L146.25,15.23C146.52,14.62 146.65,14.11 146.65,13.73C146.65,12.56 145.74,11.78 144.5,11.78Z" style="fill:rgb(53,0,35);fill-rule:nonzero;"/>
    <path d="M165.9,31.42L156.57,31.42L156.57,26.32L164.87,26.32C166.46,26.32 167.04,25.71 167.04,24.31C167.04,22.94 166.33,22.26 165.04,22.26L156.61,22.26L156.61,16.04L165.77,16.04C167.26,16.04 167.9,15.36 167.9,14.11C167.9,12.77 167.19,12.12 165.9,12.12L154.37,12.12C152.67,12.12 151.76,12.87 151.76,14.62L151.76,33.09C151.76,34.86 152.64,35.61 154.27,35.61L165.81,35.61C167.27,35.61 167.91,34.93 167.91,33.53C167.91,32.16 167.2,31.42 165.9,31.42Z" style="fill:rgb(53,0,35);fill-rule:nonzero;"/>
    <path d="M93.41,62.28L84.42,62.28L84.42,45.69C84.42,44.1 83.57,43.56 82.11,43.56C80.42,43.56 79.71,44.27 79.71,45.69L79.71,64.35C79.71,65.61 80.79,66.75 81.87,66.75L93.31,66.75C94.97,66.75 95.51,66.04 95.51,64.66C95.51,63.26 94.8,62.28 93.41,62.28Z" style="fill:rgb(53,0,35);fill-rule:nonzero;"/>
    <path d="M103.2,42.88C101.4,42.88 100.73,43.59 100.73,45.09L100.73,64.66C100.73,66.22 101.5,66.86 103.1,66.86C104.9,66.86 105.57,66.08 105.57,64.66L105.57,45.09C105.57,43.52 104.8,42.88 103.2,42.88Z" style="fill:rgb(53,0,35);fill-rule:nonzero;"/>
    <path d="M128,43.22L112.39,43.22C110.6,43.22 110.02,43.66 110.02,45.29C110.02,46.79 110.56,47.37 112.35,47.37L118.03,47.37L118.03,64.52C118.03,66.12 118.77,66.83 120.33,66.83C122.1,66.83 122.77,66.05 122.77,64.52L122.77,47.37L128.13,47.37C129.76,47.37 130.37,46.66 130.37,45.26C130.37,43.83 129.59,43.22 128,43.22Z" style="fill:rgb(53,0,35);fill-rule:nonzero;"/>
    <path d="M148.6,62.55L139.61,62.55L139.61,57.31L147.92,57.31C149.41,57.31 150.02,56.7 150.02,55.37C150.02,54.07 149.27,53.43 147.98,53.43L139.61,53.43L139.61,46.99L148.77,46.99C150.19,46.99 150.83,46.35 150.83,45.02C150.83,43.72 150.09,43.05 148.8,43.05L137.74,43.05C136.08,43.05 135.23,43.86 135.23,45.56L135.23,64.01C135.23,65.67 136.11,66.62 137.67,66.62L148.63,66.62C150.19,66.62 150.83,65.94 150.83,64.51C150.83,63.19 150.09,62.55 148.6,62.55Z" style="fill:rgb(53,0,35);fill-rule:nonzero;"/>
    <path d="M171.9,57.75C171.36,57.04 170.89,56.6 170.14,56.29C174.15,55.68 175.27,53.11 175.27,50.09C175.27,45.53 172.7,43.19 166.75,43.19L159.5,43.19C157.5,43.19 157.03,44.27 157.03,45.87L157.03,64.56C157.03,66.08 157.77,66.86 159.43,66.86C161.09,66.86 161.77,66.08 161.77,64.56L161.77,57.48L164.5,57.48C166.3,57.48 167.08,58.33 167.82,59.92L170.52,65.64C171.06,66.72 171.77,66.86 173.13,66.86C175.02,66.86 175.6,65.71 175.4,64.49C175.23,63.47 172.73,58.87 171.9,57.75ZM166.3,53.91L161.77,53.91L161.77,47.27L166.65,47.27C169.7,47.27 170.51,48.49 170.51,50.59C170.51,52.76 169.4,53.91 166.3,53.91Z" style="fill:rgb(53,0,35);fill-rule:nonzero;"/>
    <path d="M194.1,44.68C193.62,43.46 192.68,42.82 191.35,42.82C189.9,42.82 189.02,43.53 188.45,44.99L181.06,62.48C180.52,63.77 180.28,64.38 180.28,64.96C180.28,66.01 181.16,66.82 182.52,66.82C183.81,66.82 184.45,66.31 184.96,64.86L186.25,61.43L196.76,61.43L198.15,65.03C198.72,66.56 199.4,66.83 200.69,66.83C202.25,66.83 203.06,65.71 203.06,64.63C203.06,64.02 202.79,63.34 202.35,62.36L194.1,44.68ZM188.35,57.38L191.59,48.22L195.19,57.38L188.35,57.38Z" style="fill:rgb(53,0,35);fill-rule:nonzero;"/>
    <path d="M225.1,61.3C223.95,60.62 223.1,60.76 222.16,61.41C220.9,62.32 219.92,62.52 218.16,62.52C213.56,62.52 212.3,59.79 212.3,55.09C212.3,50.46 213.66,47.3 218.16,47.3C219.75,47.3 220.87,47.71 222.02,48.42C223.17,49.13 224.22,49.2 225.17,48.32C226.29,47.24 226.22,45.71 225,44.83C223.27,43.54 220.9,42.86 218.6,42.86C210.95,42.86 206.81,48.88 206.81,55.01C206.81,61.31 209.97,67.06 217.76,66.99C220.33,66.96 222.8,66.31 224.83,65.06C226.26,64.18 226.46,62.25 225.1,61.3Z" style="fill:rgb(53,0,35);fill-rule:nonzero;"/>
    <path d="M249.1,42.82C247.74,42.28 246.45,42.75 245.71,43.97L239.96,52.41L235.39,44.41C234.58,42.95 233.26,42.58 231.9,43.33C230.54,44.11 230.51,45.46 231.39,46.79L238.47,56.77L238.47,64.66C238.47,66.18 239.25,66.86 240.88,66.86C242.54,66.86 243.28,66.08 243.28,64.66L243.28,56.39L249.75,47.03C250.56,45.77 250.49,43.53 249.1,42.82Z" style="fill:rgb(53,0,35);fill-rule:nonzero;"/>
    <path d="M46.64,13.61C38.91,13.61 33.9,19.69 32.11,21.35C29.91,18.19 26.89,13.61 17.28,13.61C7.47,13.61 0,23.65 0,32.71C0,41.3 6.81,48.81 13.43,53.31L32.26,67.97L32.36,67.89L32.41,68.03L49.82,54.47C56.44,50.99 65.25,42.58 65.25,32.71C65.25,23.38 57.49,13.61 46.64,13.61ZM3.76,32.41C3.8,24.93 10.01,17.95 17.19,17.95C20.16,17.95 21.48,18.36 23.01,19.29C21.99,19.06 21.52,19.02 20.33,19.02C12.82,19.02 9.42,27.01 9.42,33.52C9.42,39.81 12.21,45.47 14.71,48.91C9.06,45.44 3.73,39.95 3.76,32.41ZM29.96,58.19C22.33,51.01 14.4,43.83 14.4,33.86C14.4,26.91 17.04,22.27 23.62,22.27C26.58,22.27 27.9,23.28 29.96,24.53L29.96,58.19ZM34.52,24.19C36.96,22.56 38.72,21.48 42.16,21.48C48.77,21.48 50.63,27.99 50.63,33.46C50.63,43.91 43.72,50.16 34.52,58.39L34.52,24.19ZM49.42,48.71C52.92,43.91 55.71,39.74 55.71,32.72C55.71,26.18 51.73,19.03 46.18,19.03C45.06,19.03 44.11,19.13 42.31,19.64C43.98,18.52 45.33,18.12 48.16,18.12C55.17,18.12 60.66,25.71 60.66,32.82C60.66,39.71 54.97,45.91 49.42,48.71Z" style="fill:rgb(231,33,87);fill-rule:nonzero;"/>
</svg>
