<svg xmlns="http://www.w3.org/2000/svg" width="250" height="250" viewBox="0 0 250 250">
<!-- SVG created with Arrow, by QuiverAI (https://quiver.ai) -->
  <path d="m111.3 34.01c-1.31 0-2.01 2.86-3.56 3.88s-2.78 1.27-3.52 3.75c-0.74 2.49-3.86 4.6-4.19 6.53-0.34 1.94-1.49 1.32-2.44 2.51s-1.03 2.54-2.3 3.4c-2.19 1.48-1.9 3.55-1.48 5.14s0.38 2.99 2.4 4.47 3.28 4.26 3.7 5.98c0.41 1.71-1.18 2.29-2.77 4.23s-1.59 2.52-3.34 3.92-2.56 1.81-1.58 2.83 2.65 4.05 3.3 4.98 0.32 2.12 0.08 3.6c-0.25 1.48 0.57 2.1 0.41 2.95-0.17 0.85-0.05 1.78 0.51 2.8 0.57 1.02 1.59 3.87 2.16 6.28s0.99 1.8 1.07 2.57c0.09 0.77 0.25 3.62 1.08 4.3 0.82 0.68 0.91 0.99 1.24 2.01s0.17 4.03 0.66 5.67c0.5 1.63 2.41 6.62 2.91 8.21s0 3.87 0 5.81 0.41 5.18 0.84 7.83c0.42 2.65 0.67 3.75-0.8 4.77-1.46 1.02-5.06 0.73-6.37 0.73s-1.31-2.73-2.22-2.44-1.49 3.06-3.2 3.79-2.28-0.29-4.69 0.73-3.84 1.8-4.58 1.97c-0.74 0.16-0.82 0.33-0.74 1.51 0.08 1.19-0.41 2.14-1.72 2.68-1.31 0.53-2.17 0.78-1.84 1.55s1.45 4.82 1.95 6.59c0.51 1.77 1.16 3.04-0.55 3.98-1.7 0.94-3.41 2.09-2.33 3.11s3.38 1.56 3.17 2.66-1.25 4.77-3.36 5.62c-1.27 0.54-2.81 0.17-3.76 0.17s-2.18 2.07-4.31 3.17-3.52 0.49-3.94 2.24-0.09 2.52 1.3 3.62 0.89 2.12 1.47 3.91 2.29 2.89 1.79 3.91c-0.49 1.02-2.55 0.73-2.05 2 0.5 1.28 2.99 1.78 2.49 3.01-0.49 1.23-1.56 2.33-1.56 3.26 0 0.94 0.08 1.19 0.58 1.19 0.49 0-0.2 1.38 0.26 2.36 0.69 1.52 1.67 1.94 2.73 1.66 1.06-0.29 0.87-0.96 1.82-0.6 0.95 0.35 1.87 2.07 3.84 1.82s2.09-1.27 2.83-0.73 0.5 1.98 2.25 1.53c1.75-0.46 2.21-2.19 3.03-1.21s0.9 2.69 1.98 3.11 1.37 0.79 2.11 2.36 2.05 1.78 2.13 3.63 2.21 3.79 3.29 4.89 1.22 4.53 3.24 5.07c1.39 0.42 2.05-0.52 3.13-0.27s1.9 0.37 2.07-1.74 1.52-4.3 2.47-5.11 1.85 0.48 3.6-0.71 4.01-3.84 6.08-4.69 5.22-3.35 6.17-4.62-0.28-1.27-0.78-2.37c-0.49-1.1 0.67-1.6 2.3-1.35s2.86 0.29 2.94-1.34 0.13-2.56 1.21-3.19c1.08-0.64-0.17-2.92 1.14-3.81s3.24-1.91 4.41-3.89c1.16-1.98-0.39-4.47-1.21-5.87-0.82-1.39 0.82-2.49 3.19-3.89 2.36-1.4 6.25-3.84 7.65-3.72 1.4 0.13 1.73 1.8 2.68 1.92 0.94 0.13 4.55 0.05 5.29-0.32s2.05-2.98 3.36-2.9 1.51-0.2 2.29-1.39 1.28-0.51 2.36-0.8 1.82-3.49 2.82-3.82 2.27-1.39 1.11-3.8c-1.17-2.41-2.84-3.47-1.61-4.91s1.4-2.21 3.01-2.21 3.04-0.34 3.96-0.67c0.91-0.33 0.81-1.73 1.31-3.13 0.49-1.4 0.62-2.25 3.03-2.25s3.49-0.37 4.61-0.58c1.12-0.2 2.15-0.82 3.54-0.57 1.39 0.24 3.06 0.49 4.33 0.49s1.72 0.77 2.42 2.6c0.69 1.84 2.44 3.52 3.28 5.09s2.26 4 3.17 3.61c0.68-0.29 0.39-2.58 2.14-3.74s2.53-0.62 4.08 0 3.68 3.15 4.8 5.04 2.52 0.54 3.1-0.4 0.49-2.88-0.67-3.9-1.25-5.15-2.2-8.35-2.11-10.07-2.94-11.86-0.09-4.95-0.95-7.96c-0.86-1.19-2.25-1.82-2.71-3.18-0.9-2.73-3.4-2.23-4.61-3.21-1.22-0.98-4.7-7.44-7.89-11.49-1.67-2.29-1.13-4.14-1.05-5.93 0.09-1.79 0.13-3.37-0.99-5.08s-1.45-4.73-1.53-6.75c-0.09-2.02-1.07-1.98-1.74-0.71-0.66 1.27-0.7 1.72-2.68 2.36-1.97 0.64-4.32 1.07-4.45-0.74s0.95-3.21-0.5-7.16c-0.77-2.33 0.15-5.8 0.85-7.25 0.45-0.93-0.94-1.58-2.65-1.7s-4.55-1.79-5.58-3.9c-1.04-2.11-2.67-1.38-3.98-1.88s-3.02-2.91-2.39-3.85c0.63-0.93 2.12-3.18 1.71-4.66s-0.62-3.76-2.6-3.47-3.57 2.18-4.31 2.76-2.67-1.36-3.9-2.63c-1.22-1.27-3.07-1.02-4.66-2.3-1.59-1.27-0.64-4.02-1.3-7.7-0.66-3.67-2.64-8.32-8.25-11.91-1.21-0.81 0.5-3.05 0.71-4.45-1.71 0.54-3.65 0.91-5.44 0.74-2.68-0.27-4.75-4.72-7.28-4.81-2.53-0.08-8.1 0.33-10.99-0.29-1.51-0.35-2.59-0.7-3.9-0.7z" fill="#AB06A7"/>
  <path d="m104.6 64.92c0-13.87 6.75-22.74 21.84-22.74 13.37 0 20.58 6.38 20.94 18.43h-12.77c-0.49-4.86-2.86-8.24-7.87-8.24-5.96 0-7.6 3.81-7.6 12.55 0 8.73 1.81 11.99 7.81 11.99 5.4 0 7.39-3.29 7.81-8.11h12.9c-0.46 11.46-7.51 18.41-21.42 18.41-14.93 0-21.64-8.44-21.64-22.29z" fill="#FA952A"/>
  <path d="m96.47 113.7c0-13.01 6.31-23.48 22.31-23.48 13.15 0 20.53 6.76 20.58 19.32h-13.04c-0.33-5.36-2.86-8.14-7.62-8.14-6.92 0-8.59 4.56-8.59 12.3 0 7.73 2.02 11.7 8.51 11.7 5.32 0 7.49-2.93 8-7.93h13.15c-0.95 11.46-8.05 18.43-21.44 18.43-15.12 0-21.86-8.7-21.86-22.2z" fill="#FA952A"/>
  <path d="m144.7 131.2c0-14.03 6.66-23.34 24.3-23.34 12.9 0 22.14 5.48 22.56 15.99h-12.81c-0.98-3.61-3.77-5.4-8.94-5.4-8.47 0-10.01 5.15-10.01 12.54 0 7.4 1.75 11.78 9.53 11.78 5.57 0 8.88-2.33 8.88-5.88h-9.96v-8.99h23.18v24.78h-6.71l-0.82-4.39c-4.06 3.67-8.29 5.15-15.03 5.15-16.75 0-24.17-8.03-24.17-22.24z" fill="#FA952A"/>
  <path d="m109.2 138.9-15.12 45.04 14.75-0.42 1.27-5.79 15-0.12 1.79 5.67 15.41-0.73-16.62-43.94-16.48 0.29zm3.65 28.3 4.8-16.6 4.72 16.6h-9.52z" fill="#FA952A"/>
</svg>