<?xml version="1.0" encoding="UTF-8" standalone="no"?>
<!DOCTYPE svg PUBLIC "-//W3C//DTD SVG 1.1//EN" "http://www.w3.org/Graphics/SVG/1.1/DTD/svg11.dtd">
<svg width="100%" height="100%" viewBox="0 0 200 200" version="1.1" xmlns="http://www.w3.org/2000/svg" xmlns:xlink="http://www.w3.org/1999/xlink" xml:space="preserve" xmlns:serif="http://www.serif.com/" style="fill-rule:evenodd;clip-rule:evenodd;stroke-linejoin:round;stroke-miterlimit:2;">
    <path d="M6.54,100.4C6.54,150.56 49.1,193.32 99.17,193.88C150.27,194.46 193.46,153.2 193.46,100.4C193.46,48.47 150.67,6.34 99.99,6.34C48.18,6.34 6.54,47.72 6.54,100.4Z" style="fill:rgb(0,179,195);fill-rule:nonzero;"/>
    <path d="M100.2,49.22C72.19,49.22 49.85,72.91 49.85,100.08C49.85,125.73 71.06,150.09 99.84,150.09C114.16,150.09 125.75,144.18 136.15,135.7C140.84,131.81 136.71,123.89 130.21,125.53C128.35,126.03 126.93,127.74 125.86,128.64C118.34,135.17 111.1,138.24 100.21,138.24C79.23,138.24 63.05,120.93 63.05,100.08C63.05,80.11 79.74,62.71 100.21,62.71C110.94,62.71 120.02,67.77 127.9,73.93C133.44,78.31 139.82,72.91 138.63,67.83C137.96,64.89 135.85,63.56 133.73,61.66C124.17,53.76 112.82,49.22 100.2,49.22Z" style="fill:rgb(0,146,157);fill-rule:nonzero;"/>
    <g transform="matrix(1.45572,0,0,1.45572,-46.0994,-47.4308)">
        <path d="M100.2,49.22C72.19,49.22 49.85,72.91 49.85,100.08C49.85,125.73 71.06,150.09 99.84,150.09C114.16,150.09 125.75,144.18 136.15,135.7C140.84,131.81 136.71,123.89 130.21,125.53C128.35,126.03 126.93,127.74 125.86,128.64C118.34,135.17 111.1,138.24 100.21,138.24C79.23,138.24 63.05,120.93 63.05,100.08C63.05,80.11 79.74,62.71 100.21,62.71C110.94,62.71 120.02,67.77 127.9,73.93C133.44,78.31 139.82,72.91 138.63,67.83C137.96,64.89 135.85,63.56 133.73,61.66C124.17,53.76 112.82,49.22 100.2,49.22Z" style="fill:rgb(0,146,157);fill-rule:nonzero;"/>
    </g>
    <path d="M99.91,69.14C83.42,69.14 70.02,82.97 69.59,99.23C69.12,114.91 81.72,131.43 100.09,131.43C109.11,131.43 116.08,127.16 122.38,121.71C126.25,118.27 122.19,109.86 114.93,111.61C112.33,112.26 108.82,118.58 99.81,118.58C89.61,118.58 82.86,109.99 82.86,100.11C82.86,90.22 91.06,82.19 100.04,82.19C106.71,82.19 110.7,85.29 113.96,88.08C119.2,92.53 125.82,86.11 123.78,80.71C122.67,77.52 112.92,69.14 99.91,69.14Z" style="fill:rgb(0,126,140);fill-rule:nonzero;"/>
    <path d="M87.53,94.77C86.77,91.66 88.83,89.95 90.92,90.42C93.41,91.01 93.98,92.61 94.78,97.81C96.19,92.49 97.01,90.69 99.65,90.69C102.06,90.69 102.87,92.41 104.51,97.81C105.66,92.87 106.35,90.76 109.11,90.76C111.3,90.76 113.05,92.77 112.74,95.11L108.82,108.85C108.27,110.8 106.72,111.44 105.14,111.44C102.36,111.44 101.4,109.18 100.03,103.97C98.51,109.92 97.73,111.47 95.15,111.47C93.28,111.47 91.73,110.56 91.23,108.62L87.53,94.77Z" style="fill:rgb(0,113,123);fill-rule:nonzero;"/>
    <path d="M13.56,70.11C13.93,69.12 14.92,68.92 15.63,69.53L21.48,74.63C22.9,75.91 22.79,77.91 21.18,78.8C20.08,79.41 19.16,79.25 17.19,78.92L14.27,78.41L18.91,83.62C19.91,84.78 19.83,86.96 18.07,87.26L9.92,87.94C9.06,88.02 8.42,87.11 8.73,86.08C9.12,84.76 9.75,84.51 11.12,84.43L16.52,84.1L12.34,79.36C11.21,78.07 11.47,76.11 13.37,75.51L20.01,76.49L14.28,72.36C13.48,71.79 13.21,70.96 13.56,70.11Z" style="fill:rgb(254,255,254);fill-rule:nonzero;"/>
    <path d="M17.73,59.06C19.84,54.7 23.06,53.57 26.6,55.28C29.91,56.87 30.41,60.38 28.68,64.14C26.57,68.76 23.22,69.5 20.11,68.02C16.88,66.51 15.88,63.01 17.73,59.06ZM20.71,58.96C19.35,60.94 19.32,63.27 21.39,64.41C23.66,65.63 25.71,64.73 26.81,62.51C27.96,60.02 27.43,58.03 25.36,57.13C23.48,56.28 21.79,57.27 20.71,58.96Z" style="fill:rgb(254,255,254);fill-rule:nonzero;"/>
    <path d="M27.92,42.92C30.99,39.09 34.39,38.59 37.52,41.08C40.44,43.47 40.22,47.01 37.71,50.37C34.61,54.51 31.17,54.62 28.41,52.44C25.54,50.18 25.29,46.56 27.92,42.92ZM30.87,42.92C29.22,44.62 28.75,46.91 30.59,48.45C32.62,50.15 34.81,49.58 36.31,47.59C37.97,45.33 37.81,43.27 35.97,41.92C34.28,40.67 32.41,41.37 30.87,42.92Z" style="fill:rgb(254,255,254);fill-rule:nonzero;"/>
    <path d="M37.74,32.88C37.08,32.06 37.69,30.95 38.41,30.49C39.09,30.05 39.81,30.36 40.26,30.97L45.18,37.41L48.98,34.23C49.69,33.65 50.78,33.97 50.87,34.81C50.94,35.44 50.68,35.88 50.29,36.22L45.73,40.04C44.89,40.74 43.92,40.29 43.37,39.52L37.74,32.88Z" style="fill:rgb(254,255,254);fill-rule:nonzero;"/>
    <path d="M46.71,25.49C46.05,24.66 46.4,23.7 47.27,23.39C47.96,23.13 48.51,23.39 49.07,23.93L53.6,28.52L52.45,22.01C52.21,20.32 53.71,19.15 55.21,19.78L60.81,23.71L58.96,17.23C58.71,16.3 58.89,15.69 59.61,15.27C60.47,14.76 61.38,15.16 61.61,16.08L63.66,23.72C64.22,26.01 62.68,27.58 60.81,27.27L55.37,23.51L56.52,29.12C56.92,31.13 54.92,32.86 53.32,32.2L46.71,25.49Z" style="fill:rgb(254,255,254);fill-rule:nonzero;"/>
    <path d="M66.44,15.69C65.98,14.37 66.51,13.58 67.71,13.21C68.71,12.88 69.5,13.49 69.81,14.58L72.87,22.62C73.24,23.69 72.62,24.58 71.62,24.86C70.49,25.2 69.65,24.66 69.36,23.62L66.44,15.69Z" style="fill:rgb(254,255,254);fill-rule:nonzero;"/>
    <path d="M86.07,9.15C87.06,9.31 87.52,9.81 87.59,10.51C87.71,11.47 86.96,12.13 86.06,11.89C85.18,11.65 84.12,11.41 82.89,11.55C79.97,11.91 78.73,13.68 78.99,15.92C79.29,18.44 81.11,19.28 83.48,18.98C84.87,18.8 85.93,18.25 86.99,17.81C87.79,17.48 88.59,18.11 88.58,18.92C88.57,19.76 87.83,20.24 86.98,20.58C85.77,21.07 84.68,21.31 83.25,21.43C78.94,21.81 75.64,19.94 75.31,16.09C74.99,12.51 77.79,9.66 82.92,9.16C84.26,9.02 85.24,8.99 86.07,9.15Z" style="fill:rgb(254,255,254);fill-rule:nonzero;"/>
    <path d="M90.41,9.59C90.41,8.56 91.1,8.09 92.14,8.09C93.24,8.09 93.86,8.71 93.86,9.62L93.86,12.51L100.09,12.51L100.09,9.76C100.09,8.77 100.68,8.09 101.78,8.09C102.82,8.09 103.53,8.61 103.53,9.71L103.53,16.77C103.53,18.15 103.36,18.66 102.91,18.92C102.22,19.31 100.43,18.92 100.27,18.16C100.14,17.56 100.12,16.41 100.09,15.04L93.86,15.04L93.78,17.81C93.75,18.74 92.89,19.04 92.02,18.98C90.89,18.89 90.38,18.39 90.38,17.19L90.41,9.59Z" style="fill:rgb(254,255,254);fill-rule:nonzero;"/>
    <path d="M126.1,12.01C126.93,12.62 127.14,13.26 126.91,13.93C126.59,14.85 125.63,15.16 124.89,14.56C124.15,13.96 123.24,13.31 122.03,12.96C119.19,12.09 117.33,13.21 116.63,15.36C115.8,17.77 117.06,19.36 119.34,20.11C120.67,20.58 121.86,20.52 123.02,20.59C123.89,20.65 124.35,21.56 123.98,22.29C123.59,23.04 122.71,23.16 121.8,23.07C120.5,22.94 119.41,22.66 118.05,22.16C113.98,20.62 112.49,17.85 113.71,14.17C114.84,10.75 118.59,9.43 123.45,11.19C124.73,11.65 125.61,12.04 126.1,12.01Z" style="fill:rgb(254,255,254);fill-rule:nonzero;"/>
    <path d="M139.7,16.73C143.9,19.09 144.81,22.41 142.89,25.83C141.04,29.22 137.39,29.5 133.76,27.53C129.29,25.12 128.59,21.73 130.31,18.7C132.14,15.42 135.84,14.64 139.7,16.73ZM139.4,19.72C137.5,18.25 135.13,18.07 133.72,20.06C132.19,22.31 132.97,24.51 135.11,25.82C137.51,27.2 139.6,26.76 140.74,24.76C141.82,22.84 140.95,20.99 139.4,19.72Z" style="fill:rgb(254,255,254);fill-rule:nonzero;"/>
    <path d="M150.8,24.65C152.06,23.49 153.66,23.96 154.39,25.45L155.11,30.79L158.68,28.99C160.38,28.16 162.2,29.48 161.73,31.41L157.91,39.8C157.36,41.04 156.39,41.42 155.34,40.71C154.31,40.01 154.49,38.78 155.07,37.7L158.04,32.41L152.14,35.78C150.77,36.58 149.34,35.65 149.51,34.04L150.67,27.91L146.11,32.35C145.28,33.16 144.18,33.18 143.46,32.31C142.81,31.52 143.02,30.44 143.78,29.79L150.8,24.65Z" style="fill:rgb(254,255,254);fill-rule:nonzero;"/>
    <path d="M167.5,38.86C169.03,37.99 170.47,38.78 170.97,40.37L170.71,45.76L174.54,44.69C176.37,44.16 177.93,45.77 177.1,47.59L172.02,55.25C171.25,56.46 170.21,56.71 169.29,55.83C168.35,54.92 168.73,53.71 169.49,52.74L173.34,47.98L166.85,50.23C165.35,50.8 164.11,49.63 164.48,48.05L166.75,42.16L161.45,45.72C160.48,46.37 159.4,46.24 158.83,45.26C158.3,44.36 158.7,43.33 159.58,42.82L167.5,38.86Z" style="fill:rgb(254,255,254);fill-rule:nonzero;"/>
    <path d="M183.7,61.15C185.88,65.48 184.88,68.8 181.38,70.58C178.09,72.22 174.92,70.34 172.96,66.65C170.57,62.08 171.98,58.91 175.06,57.36C178.26,55.77 181.68,57.28 183.7,61.15ZM181.24,62.94C180.27,60.66 178.25,59.36 176.07,60.49C173.78,61.66 173.37,63.93 174.52,66.15C175.82,68.61 177.82,69.37 179.85,68.29C181.74,67.29 182.02,65.27 181.24,62.94Z" style="fill:rgb(254,255,254);fill-rule:nonzero;"/>
    <path d="M186.9,73.92C187.94,73.64 188.89,74.26 188.87,75.66L183.93,84.39L189.13,83.05C190.28,82.75 191,83.21 191.25,84.21C191.56,85.37 190.81,86.21 189.76,86.42L181.8,88.39C180.41,88.76 179.43,87.69 179.6,86.31L184.8,77.4L179.23,78.91C178.04,79.25 177.37,78.46 177.18,77.56C176.95,76.51 177.54,75.67 178.6,75.51L186.9,73.92Z" style="fill:rgb(254,255,254);fill-rule:nonzero;"/>
    <path d="M20.74,123.8C20.21,124.63 19.09,124.7 18.62,123.94C18.13,123.15 18.73,122.18 18.78,119.95C18.86,117.41 17.51,116.83 15.72,116.91C13.39,117.01 12.37,118.6 12.47,120.84C12.55,122.41 13.31,123.51 13.73,124.35C14.22,125.37 13.49,126.28 12.45,126.1C11.29,125.88 10.13,122.94 9.87,120.48C9.46,116.78 11.06,113.75 14.94,113.44C18.83,113.13 20.91,115.72 21.31,119.8C21.56,122.21 21.09,123.3 20.74,123.8Z" style="fill:rgb(254,255,254);fill-rule:nonzero;"/>
    <path d="M26.41,133C28.58,137.3 27.58,140.62 24.08,142.44C20.81,144.08 17.61,142.23 15.7,138.55C13.36,133.95 14.78,130.79 17.87,129.27C21.07,127.63 24.46,129.14 26.41,133ZM23.96,134.82C22.96,132.55 20.96,131.28 18.78,132.42C16.51,133.59 16.11,135.86 17.26,138.08C18.56,140.57 20.61,141.28 22.61,140.15C24.54,139.08 24.82,137.06 23.96,134.82Z" style="fill:rgb(254,255,254);fill-rule:nonzero;"/>
    <path d="M30.75,146C32.12,145.02 33.62,145.7 34.32,147.26L33.17,152.93L36.93,151.58C38.76,150.87 40.41,152.51 39.59,154.47L33.91,162.21C33.12,163.37 32.1,163.62 31.16,162.65C30.22,161.67 30.66,160.4 31.52,159.38L35.66,154.44L29.29,157.21C27.84,157.9 26.52,156.77 26.73,155.11L29.19,148.9L23.75,152.34C22.78,152.93 21.74,152.75 21.19,151.73C20.64,150.74 21.04,149.67 21.97,149.18L30.75,146Z" style="fill:rgb(254,255,254);fill-rule:nonzero;"/>
    <path d="M44.73,160.9C45.94,159.74 47.51,160.26 48.36,161.69L47.01,167.98L50.83,165.91C52.53,164.94 54.41,166.27 53.79,168.28L49.79,176.41C49.15,177.76 48.19,178.14 47.11,177.35C46,176.51 46.27,175.24 46.92,174.03L49.89,168.74L43.99,172.5C42.56,173.43 41.13,172.4 41.18,170.7L42.82,164.31L37.99,168.9C37.13,169.73 36.04,169.79 35.28,168.85C34.51,167.91 34.77,166.77 35.66,166.06L44.73,160.9Z" style="fill:rgb(254,255,254);fill-rule:nonzero;"/>
    <path d="M59.39,172.1C59.91,170.81 60.76,170.55 61.86,170.98C62.84,171.4 63.11,172.38 62.61,173.53L60.18,178.82C59.39,180.65 60.76,181.89 62.42,182.53C64.32,183.33 65.75,182.43 66.41,180.63L68.52,175.48C68.99,174.29 70.09,174.13 70.93,174.6C71.92,175.14 72.08,176.03 71.53,177.22L69.17,182.43C67.71,185.87 64.73,186.18 61.12,184.63C57.17,182.93 55.62,180.44 56.99,177.21L59.39,172.1Z" style="fill:rgb(254,255,254);fill-rule:nonzero;"/>
    <path d="M75.17,178.8C75.43,177.71 76.47,177.16 77.79,177.82L83.92,185.89L85.35,180.31C85.66,179.07 86.72,178.85 87.56,179.16C88.55,179.52 88.86,180.46 88.55,181.46L86.29,189.74C85.87,191.29 84.44,191.49 83.25,190.65L77.53,182.72L76.16,188.17C75.85,189.47 74.81,189.68 73.85,189.37C72.79,189.01 72.43,188.02 72.82,186.98L75.17,178.8Z" style="fill:rgb(254,255,254);fill-rule:nonzero;"/>
    <path d="M91.6,182.1C91.71,180.72 92.55,180.2 93.71,180.31C94.75,180.41 95.28,181.3 95.12,182.45L94.39,190.61C94.26,191.75 93.29,192.25 92.25,192.05C91.09,191.82 90.57,190.93 90.78,189.86L91.6,182.1Z" style="fill:rgb(254,255,254);fill-rule:nonzero;"/>
    <path d="M101.8,183.3L99.21,183.4C98.17,183.45 97.57,182.96 97.55,182.02C97.52,181.18 98.24,180.68 99.28,180.65L107.37,180.34C108.47,180.29 109.14,180.7 109.22,181.59C109.29,182.43 108.63,183.02 107.59,183.04L105.15,183.14L105.41,190.29C105.46,191.54 104.72,192.2 103.62,192.09C102.47,191.97 101.87,191.28 101.87,190.14L101.8,183.3Z" style="fill:rgb(254,255,254);fill-rule:nonzero;"/>
    <path d="M117,185.1L112.03,181.15C111.14,180.41 111.69,178.93 112.93,178.73C113.72,178.6 114.19,178.8 114.79,179.37L118.66,182.81L120.71,178.7C121.04,178.01 121.68,177.65 122.35,177.65C123.5,177.65 124.15,178.98 123.5,179.9L120.22,185.4L120.82,188.84C121.03,189.98 120.39,190.72 119.29,190.8C118.14,190.88 117.39,190.14 117.34,189.1L117,185.1Z" style="fill:rgb(254,255,254);fill-rule:nonzero;"/>
    <path d="M143.9,170.8C143.01,170.9 142.37,170.9 140.85,171.42C138.47,172.3 137.21,174.03 138.3,176.49C139.34,178.95 141.24,179.47 143.28,178.64C144.73,178.02 145.48,176.88 146.2,176.24C147.04,175.45 148.14,175.87 148.3,176.8C148.5,177.87 146.9,179.64 144.78,180.83C141.24,182.87 137.6,182.81 135.36,178.9C133.4,175.3 135.1,172.02 139.24,170.03C141.17,169.1 142.81,168.94 143.58,169.1C144.78,169.36 145.1,170.57 143.9,170.8Z" style="fill:rgb(254,255,254);fill-rule:nonzero;"/>
    <path d="M147,166.2C146.16,165.11 146.47,163.99 147.78,163.2L151.75,160.43C152.49,159.91 153.43,159.99 153.85,160.68C154.31,161.42 154,162.31 153.21,162.83L150.08,165.01L151.51,167.17L154.2,165.22C154.99,164.65 155.83,164.7 156.29,165.37C156.81,166.11 156.44,167.05 155.65,167.6L153.06,169.42L154.66,171.64L157.68,169.47C158.57,168.83 159.41,168.94 159.83,169.63C160.3,170.37 159.88,171.31 158.99,171.9L155.12,174.62C153.92,175.49 152.88,175.03 152.14,173.79L147,166.2Z" style="fill:rgb(254,255,254);fill-rule:nonzero;"/>
    <path d="M156.8,160.2C155.91,159.36 155.86,158.17 157.21,157.23L167.28,156.92L163.26,153.26C162.27,152.37 162.53,151.28 163.21,150.59C163.95,149.8 164.94,149.85 165.73,150.64L171.81,156.32C172.96,157.46 172.41,158.92 170.98,159.51L161.12,159.61L165.4,163.74C166.39,164.68 166.13,165.67 165.45,166.36C164.61,167.25 163.57,167.1 162.78,166.16L156.8,160.2Z" style="fill:rgb(254,255,254);fill-rule:nonzero;"/>
    <path d="M170,145.9L168.69,148.12C168.15,149.01 167.36,149.22 166.59,148.68C165.9,148.21 165.85,147.28 166.39,146.34L170.73,139.39C171.33,138.4 172.12,138.04 172.91,138.5C173.65,138.92 173.75,139.81 173.2,140.7L171.89,142.94L178.15,146.75C179.25,147.44 179.51,148.53 178.82,149.47C178.13,150.46 176.98,150.51 176.04,149.77L170,145.9Z" style="fill:rgb(254,255,254);fill-rule:nonzero;"/>
    <path d="M174.7,135.2C173.66,134.73 173.35,133.74 173.82,132.54L175.42,128.92C176.75,125.67 178.75,125.93 179.95,126.45C181.38,127.1 182.25,128.77 181.83,130.73L185.27,129.08C186.06,128.72 186.61,128.67 187.08,128.87C187.82,129.23 188.08,130.38 187.48,131.32C187.06,132.06 186.67,132.21 185.83,132.52L181.4,134L180.96,135.09L183.45,136.19C184.49,136.66 184.75,137.7 184.28,138.64C183.69,139.73 182.59,139.89 181.6,139.3L174.7,135.2ZM178.37,134L179.36,131.54C179.88,130.25 179.36,129.46 178.67,129.15C177.73,128.72 177.09,129.26 176.62,130.35L175.68,132.76L178.37,134Z" style="fill:rgb(254,255,254);fill-rule:nonzero;"/>
    <path d="M180.1,120.7C178.72,120.34 178.25,119.24 178.62,117.75L179.83,114.14C180.09,113.1 180.78,112.63 181.62,112.89C182.41,113.15 182.72,114.09 182.41,115.18L181.31,118.52L183.8,119.26L184.79,116.22C185.1,115.18 185.84,114.66 186.64,114.92C187.47,115.18 187.74,116.17 187.43,117.26L186.44,120.24L188.58,120.93L189.68,117.38C190.04,116.17 190.83,115.7 191.62,115.96C192.46,116.27 192.67,117.31 192.3,118.46L190.71,123.29C190.27,124.88 189.12,125.14 187.74,124.62L180.1,120.7Z" style="fill:rgb(254,255,254);fill-rule:nonzero;"/>
</svg>
