<?xml version="1.0" encoding="UTF-8" standalone="no"?>
<!DOCTYPE svg PUBLIC "-//W3C//DTD SVG 1.1//EN" "http://www.w3.org/Graphics/SVG/1.1/DTD/svg11.dtd">
<svg width="100%" height="100%" viewBox="0 0 195 194" version="1.1" xmlns="http://www.w3.org/2000/svg" xmlns:xlink="http://www.w3.org/1999/xlink" xml:space="preserve" xmlns:serif="http://www.serif.com/" style="fill-rule:evenodd;clip-rule:evenodd;stroke-linejoin:round;stroke-miterlimit:2;">
    <g transform="matrix(1,0,0,1,0,-1.7)">
        <g transform="matrix(1,0,0,1,0,-20)">
            <path d="M193,202.6L189.38,208.62L185.79,202.6L184.3,202.6L188.65,209.7L188.65,215.05L189.98,215.05L189.98,209.7L194.52,202.6L193,202.6Z" style="fill:rgb(200,154,116);fill-rule:nonzero;"/>
        </g>
        <g transform="matrix(1,0,0,1,0,-20)">
            <path d="M173,202.6L171.67,202.6L171.67,215.05L179.61,215.05L179.61,213.87L173,213.87L173,202.6Z" style="fill:rgb(200,154,116);fill-rule:nonzero;"/>
        </g>
        <g transform="matrix(1,0,0,1,0,-20)">
            <rect x="163.47" y="202.6" width="1.33" height="12.45" style="fill:rgb(200,154,116);fill-rule:nonzero;"/>
        </g>
        <g transform="matrix(1,0,0,1,0,-20)">
            <path d="M149,212.2L148.96,212.28L148.61,213.13L148.26,212.29L144.54,202.57L142.43,202.57L142.43,215.02L143.77,215.02L143.77,204.27L148.04,215.02L149.18,215.02L153.89,204.27L153.89,215.02L155.23,215.02L155.23,202.57L153.14,202.57L149,212.2Z" style="fill:rgb(200,154,116);fill-rule:nonzero;"/>
        </g>
        <g transform="matrix(1,0,0,1,0,-20)">
            <path d="M130,202.6L125.7,215.05L127.1,215.05L128.17,212.14L134.3,212.14L135.42,215.05L136.81,215.05L132.38,202.6L130,202.6ZM128.58,211.03L131.2,203.57L134.01,211.03L128.58,211.03Z" style="fill:rgb(200,154,116);fill-rule:nonzero;"/>
        </g>
        <g transform="matrix(1,0,0,1,0,-20)">
            <path d="M113.4,215L114.73,215L114.73,209.34L120.68,209.34L120.68,208.25L114.73,208.25L114.73,203.67L120.98,203.67L120.98,202.55L113.4,202.55L113.4,215Z" style="fill:rgb(200,154,116);fill-rule:nonzero;"/>
        </g>
        <g transform="matrix(1,0,0,1,0,-20)">
            <path d="M97.44,206.4C97.44,203.42 96.25,202.58 93.79,202.58L88.08,202.58L88.08,215.03L89.41,215.03L89.41,210.35L93.75,210.35C95.46,210.35 96.07,210.9 96.07,212.72L96.07,215.03L97.4,215.03L97.4,212.26C97.4,210.8 96.86,209.86 95.82,209.64C96.88,209.36 97.44,208.52 97.44,206.4ZM93.58,209.23L89.41,209.23L89.41,203.73L93.73,203.73C95.78,203.73 96.11,204.64 96.11,206.37C96.11,208.45 95.69,209.23 93.58,209.23Z" style="fill:rgb(200,154,116);fill-rule:nonzero;"/>
        </g>
        <g transform="matrix(1,0,0,1,0,-20)">
            <path d="M73.82,215L81.7,215L81.7,213.89L75.11,213.89L75.11,209.17L81.42,209.17L81.42,208.1L75.11,208.1L75.11,203.67L81.7,203.67L81.7,202.55L73.82,202.55L73.82,215Z" style="fill:rgb(200,154,116);fill-rule:nonzero;"/>
        </g>
        <g transform="matrix(1,0,0,1,0,-20)">
            <path d="M64.27,213.9L59.9,202.56L58.49,202.56L63.26,215.01L65.36,215.01L70.01,202.56L68.58,202.56L64.27,213.9Z" style="fill:rgb(200,154,116);fill-rule:nonzero;"/>
        </g>
        <g transform="matrix(1,0,0,1,0,-20)">
            <path d="M45.67,215L53.37,215L53.37,213.89L46.96,213.89L46.96,209.17L53.11,209.17L53.11,208.1L46.96,208.1L46.96,203.67L53.37,203.67L53.37,202.55L45.67,202.55L45.67,215Z" style="fill:rgb(200,154,116);fill-rule:nonzero;"/>
        </g>
        <g transform="matrix(1,0,0,1,0,-20)">
            <path d="M38.96,206.4C38.96,203.42 37.77,202.58 35.31,202.58L29.97,202.58L29.97,215.03L31.3,215.03L31.3,210.35L35.64,210.35C37.35,210.35 37.96,210.9 37.96,212.72L37.96,215.03L39.29,215.03L39.29,212.26C39.29,210.8 38.75,209.86 37.71,209.64C38.77,209.36 38.96,208.52 38.96,206.4ZM35.42,209.23L31.3,209.23L31.3,203.73L35.62,203.73C37.67,203.73 37.76,204.64 37.76,206.37C37.76,208.45 37.53,209.23 35.42,209.23Z" style="fill:rgb(200,154,116);fill-rule:nonzero;"/>
        </g>
        <g transform="matrix(1,0,0,1,0,-20)">
            <path d="M18.66,202.4L18.56,202.4C14.43,202.4 13.72,203.28 13.72,208.26L13.72,209.15C13.72,214.21 14.38,215.14 18.56,215.14L18.66,215.14C22.84,215.14 23.51,214.21 23.51,209.15L23.51,208.26C23.51,203.28 22.8,202.4 18.66,202.4ZM22.18,209.05C22.18,213.32 21.76,214.02 18.61,214.02L18.6,214.02C15.45,214.02 15.05,213.32 15.05,209.05L15.05,208.36C15.05,204.31 15.39,203.52 18.6,203.52L18.61,203.52C21.82,203.52 22.18,204.31 22.18,208.36L22.18,209.05Z" style="fill:rgb(200,154,116);fill-rule:nonzero;"/>
        </g>
        <g transform="matrix(1,0,0,1,0,-20)">
            <path d="M0,215L1.33,215L1.33,209.34L7.28,209.34L7.28,208.25L1.33,208.25L1.33,203.67L7.58,203.67L7.58,202.55L0,202.55L0,215Z" style="fill:rgb(200,154,116);fill-rule:nonzero;"/>
        </g>
        <path d="M97.38,1.7C52.29,1.7 11.09,38.61 11.09,88.42C11.09,134.63 48.67,173.57 97.38,173.57C144.52,173.57 185.69,135.4 185.69,88.42C185.69,42.12 147.89,1.7 97.38,1.7ZM97.25,10.45C111.87,10.45 124.65,13.95 136.59,20.46L136.59,68.63L98.02,45.4L49.25,73.92L49.25,147.68C32.01,133.43 20.92,112.52 20.92,88.66C20.92,47.03 54.41,10.45 97.25,10.45ZM98.02,57.07L136.59,80L136.59,89.6L98.02,66.61L59.12,89.36L59.12,79.76L98.02,57.07ZM97.52,164.87C83.85,164.87 72.07,161.76 60.01,155.01L60.01,121.87L97.78,100.05L146.67,128.81L146.67,28.11C164.36,42.85 174.98,64.44 174.98,88.46C174.98,129.23 141.88,164.86 97.52,164.86L97.52,164.87ZM97.78,87.94L59.12,110.22L59.12,101.32L97.78,78.51L136.71,101.46L136.71,110.63L97.78,87.94Z" style="fill:rgb(200,154,116);fill-rule:nonzero;"/>
    </g>
</svg>
